<?xml version="1.0" encoding="UTF-8" standalone="no"?>
<!DOCTYPE svg PUBLIC "-//W3C//DTD SVG 1.1//EN" "http://www.w3.org/Graphics/SVG/1.1/DTD/svg11.dtd">
<svg xmlns="http://www.w3.org/2000/svg" xmlns:xlink="http://www.w3.org/1999/xlink" version="1.1" width="22pt" height="19pt" viewBox="0 0 22 19">
<g enable-background="new">
<clipPath id="cp0">
<path transform="matrix(1,0,0,-1,0,19)" d="M 21.85987 1.487097 L 11.8797 18.50283 C 11.48622 19.16572 10.53641 19.16572 10.14293 18.50283 L .1393763 1.487097 C -.2541061 .8241973 .2316427 .000467559 1.019524 .000467559 L 21.00417 .000467559 C 21.76763 -.02276045 22.25428 .8241973 21.85989 1.487097 L 21.85987 1.487097 Z M 10.07346 13.76871 C 10.07346 14.2717 10.49047 14.68356 10.99974 14.68356 C 11.509 14.68356 11.92601 14.2717 11.92601 13.76871 L 11.92601 7.250415 C 11.92601 6.747431 11.509 6.335566 10.99974 6.335566 C 10.49047 6.335566 10.07346 6.747431 10.07346 7.250415 L 10.07346 13.76871 Z M 10.99974 2.356432 C 10.2589 2.356432 9.656451 2.951449 9.656451 3.683145 C 9.656451 4.414841 10.2589 5.009859 10.99974 5.009859 C 11.74057 5.009859 12.34302 4.414841 12.34302 3.683145 C 12.34302 2.950557 11.74057 2.356432 10.99974 2.356432 Z " fill-rule="evenodd"/>
</clipPath>
<g clip-path="url(#cp0)">
<clipPath id="cp1">
<path transform="matrix(1,0,0,-1,0,19)" d="M -1346 -618 L 94 -618 L 94 168 L -1346 168 Z "/>
</clipPath>
<g clip-path="url(#cp1)">
<path transform="matrix(1,0,0,-1,0,19)" d="M -5 24 L 27 24 L 27 -5 L -5 -5 Z " fill="#AF5119"/>
</g>
</g>
</g>
</svg>
