<?xml version="1.0" encoding="UTF-8"?>
<svg width="19px" height="21px" viewBox="0 0 19 21" version="1.1" xmlns="http://www.w3.org/2000/svg" xmlns:xlink="http://www.w3.org/1999/xlink">
    <title>Group 6</title>
    <g id="Web" stroke="none" stroke-width="1" fill="none" fill-rule="evenodd">
        <g id="2.2.1-Map" transform="translate(-703.000000, -343.000000)">
            <g id="map" transform="translate(321.124005, 105.000000)">
                <g id="Group-6" transform="translate(378.875995, 235.000000)">
                    <g transform="translate(4.000000, 4.000000)">
                        <path d="M16.1960627,11.3100593 L15.2055075,12.2738674 L14.2409574,11.3093173 C14.0588965,11.100496 13.7200361,11.100496 13.5112339,11.3093173 C13.3024126,11.5181386 13.3024126,11.8302387 13.5112339,12.0390409 L14.8666604,13.3944674 C15.0754816,13.6032887 15.3875817,13.6032887 15.5963839,13.3944674 L16.9518105,12.0390409 C17.1606317,11.8302196 17.1606317,11.5181196 16.9518105,11.3093173 C16.716984,11.101238 16.3788788,11.101238 16.1960627,11.3100612 L16.1960627,11.3100593 Z" id="Fill-1" stroke="#FFFFFF" stroke-width="0.3" fill="#FFFFFF"></path>
                        <path d="M5.90243063,5.18619473 C6.89298584,5.18619473 7.67473877,4.37843663 7.67473877,3.41388659 C7.67473877,2.44933655 6.86698067,1.64157844 5.90243063,1.64157844 C4.91187543,1.64157844 4.13012249,2.44933655 4.13012249,3.41388659 C4.13012249,4.37843663 4.91187543,5.18619473 5.90243063,5.18619473 Z M5.90243063,2.68422007 C6.2933071,2.68422007 6.63215422,3.02306719 6.63215422,3.41394366 C6.63215422,3.80482013 6.2933071,4.14366724 5.90243063,4.14366724 C5.51155416,4.14366724 5.17270705,3.80482013 5.17270705,3.41394366 C5.17270705,3.02306719 5.485549,2.68422007 5.90243063,2.68422007 Z" id="Fill-2" stroke="#FFFFFF" stroke-width="0.3" fill="#FFFFFF"></path>
                        <path d="M3.84408469,12.1957948 L3.89610263,12.1957948 L3.89610263,16.8603643 C3.89610263,17.1472015 4.13092909,17.381286 4.41702395,17.381286 L7.38792862,17.3820291 C7.67476541,17.3820291 7.90884994,17.1472026 7.90884994,16.8611082 L7.90884994,12.1959679 L7.96086788,12.1959679 C8.24770467,12.1959679 8.4817892,11.9611415 8.4817892,11.6750466 L8.48253302,8.05239579 C8.48253302,6.61893477 7.3359278,5.47242466 5.90256189,5.47242466 C4.46919598,5.47242466 3.32259076,6.61902988 3.32259076,8.05239579 L3.32259076,11.6482234 C3.32259076,11.9610654 3.55741722,12.1958918 3.844254,12.1958918 L3.84408469,12.1957948 Z M6.86711383,16.3393099 L6.42422703,16.3393099 L6.42422703,14.4108946 C6.42422703,14.1240578 6.18940058,13.8899733 5.90330571,13.8899733 C5.61646893,13.8899733 5.38238439,14.1247998 5.38238439,14.4108946 L5.38238439,16.3393099 L4.93949759,16.3393099 L4.93801186,12.1957948 L6.86718803,12.1957948 L6.86711383,16.3393099 Z M4.36513918,8.05227975 C4.36513918,7.19251131 5.0688576,6.51479806 5.90262087,6.51479806 C6.7623893,6.51479806 7.44010256,7.21851648 7.44010256,8.05227975 L7.44010256,11.1272431 L4.36513918,11.1272431 L4.36513918,8.05227975 Z" id="Fill-3" stroke="#FFFFFF" stroke-width="0.3" fill="#FFFFFF"></path>
                        <path d="M11.2187463,0.130042948 L0.560433002,0.130042948 C0.273596217,0.130042948 0.0395116814,0.364869402 0.0395116814,0.650964268 L0.0395116814,18.3717631 C0.0395116814,18.6585997 0.274338135,18.8926843 0.560433002,18.8926843 L11.2187463,18.8926843 C11.5055831,18.8926843 11.7396676,18.6578579 11.7396676,18.3717631 L11.7396676,0.650964268 C11.7396676,0.364869402 11.5315883,0.130042948 11.2187463,0.130042948 Z M10.697825,17.8508416 L1.08124037,17.8508416 L1.08124037,1.17253239 L10.697064,1.17253239 L10.697825,17.8508416 Z" id="Fill-4" stroke="#FFFFFF" stroke-width="0.3" fill="#FFFFFF"></path>
                        <path d="M14.2415852,7.71347068 L15.2061353,6.74892064 L16.1706853,7.71347068 C16.3527462,7.92229197 16.6916066,7.92229197 16.9004089,7.71347068 C17.1092111,7.50464939 17.1092302,7.19254936 16.9004089,6.9837471 L15.5449824,5.62832059 C15.3361611,5.4194993 15.024061,5.4194993 14.8152588,5.62832059 L13.4598323,6.9837471 C13.251011,7.19256838 13.251011,7.50466842 13.4598323,7.71347068 C13.6939168,7.92229197 14.0327639,7.92229197 14.2415852,7.71347068 Z" id="Fill-5" stroke="#FFFFFF" stroke-width="0.3" fill="#FFFFFF"></path>
                    </g>
                </g>
            </g>
        </g>
    </g>
</svg>